<mxfile host="65bd71144e">
    <diagram id="Gh1UO5QViJ92EcomFD_n" name="Page-1">
        <mxGraphModel dx="805" dy="396" grid="1" gridSize="10" guides="1" tooltips="1" connect="1" arrows="1" fold="1" page="1" pageScale="1" pageWidth="850" pageHeight="1100" math="0" shadow="0">
            <root>
                <mxCell id="0"/>
                <mxCell id="1" parent="0"/>
                <mxCell id="2" value="" style="whiteSpace=wrap;html=1;" vertex="1" parent="1">
                    <mxGeometry x="80" y="60" width="310" height="240" as="geometry"/>
                </mxCell>
                <mxCell id="6" value="Retangulo" style="text;strokeColor=none;align=center;fillColor=none;html=1;verticalAlign=middle;whiteSpace=wrap;rounded=0;fontSize=18;" vertex="1" parent="1">
                    <mxGeometry x="180" y="70" width="110" height="30" as="geometry"/>
                </mxCell>
                <mxCell id="7" value="&lt;div style=&quot;text-align: left;&quot;&gt;&lt;span style=&quot;background-color: initial;&quot;&gt;- base: double&lt;/span&gt;&lt;/div&gt;- altura: double" style="text;strokeColor=none;align=center;fillColor=none;html=1;verticalAlign=middle;whiteSpace=wrap;rounded=0;" vertex="1" parent="1">
                    <mxGeometry x="70" y="110" width="130" height="50" as="geometry"/>
                </mxCell>
                <mxCell id="12" value="&amp;lt;&amp;lt;constructor&amp;gt; Retangulo (base: double, altura:double)&lt;br&gt;+ setBase (double base)&lt;br&gt;+ getBase(): double&lt;br&gt;+ setAltura (double altura)&lt;br&gt;+ getAltura(): double&lt;br&gt;+ area(): double&lt;br&gt;+ perimetro(): double&lt;br&gt;+ mostraResultado()" style="text;strokeColor=none;align=left;fillColor=none;html=1;verticalAlign=middle;whiteSpace=wrap;rounded=0;" vertex="1" parent="1">
                    <mxGeometry x="90" y="180" width="310" height="110" as="geometry"/>
                </mxCell>
                <mxCell id="14" value="" style="edgeStyle=none;orthogonalLoop=1;jettySize=auto;html=1;strokeColor=#F0F0F0;fontSize=18;shape=link;entryX=0.066;entryY=0.006;entryDx=0;entryDy=0;entryPerimeter=0;exitX=1.005;exitY=0.2;exitDx=0;exitDy=0;exitPerimeter=0;" edge="1" parent="1" source="2" target="7">
                    <mxGeometry width="80" relative="1" as="geometry">
                        <mxPoint x="210" y="109" as="sourcePoint"/>
                        <mxPoint x="290" y="109" as="targetPoint"/>
                        <Array as="points"/>
                    </mxGeometry>
                </mxCell>
                <mxCell id="15" value="" style="edgeStyle=none;orthogonalLoop=1;jettySize=auto;html=1;strokeColor=#F0F0F0;fontSize=18;shape=link;entryX=0.066;entryY=0.006;entryDx=0;entryDy=0;entryPerimeter=0;" edge="1" parent="1">
                    <mxGeometry width="80" relative="1" as="geometry">
                        <mxPoint x="390" y="160" as="sourcePoint"/>
                        <mxPoint x="78.44000000000004" y="162.42000000000002" as="targetPoint"/>
                        <Array as="points"/>
                    </mxGeometry>
                </mxCell>
                <mxCell id="16" value="" style="whiteSpace=wrap;html=1;fontSize=18;" vertex="1" parent="1">
                    <mxGeometry x="500" y="250" width="200" height="130" as="geometry"/>
                </mxCell>
                <mxCell id="17" value="testeRetangulo" style="text;strokeColor=none;align=center;fillColor=none;html=1;verticalAlign=middle;whiteSpace=wrap;rounded=0;fontSize=18;" vertex="1" parent="1">
                    <mxGeometry x="515" y="250" width="160" height="30" as="geometry"/>
                </mxCell>
                <mxCell id="18" value="&lt;span style=&quot;font-size: 12px;&quot;&gt;&amp;lt;&amp;lt;constructor&amp;gt;&amp;gt; testeRetangulo()&lt;br&gt;+ main (args: String[])&lt;br&gt;&lt;/span&gt;" style="text;strokeColor=none;align=left;fillColor=none;html=1;verticalAlign=middle;whiteSpace=wrap;rounded=0;fontSize=18;" vertex="1" parent="1">
                    <mxGeometry x="505" y="310" width="190" height="70" as="geometry"/>
                </mxCell>
                <mxCell id="22" value="" style="edgeStyle=none;orthogonalLoop=1;jettySize=auto;html=1;strokeColor=#F0F0F0;fontSize=12;shape=link;width=1;" edge="1" parent="1">
                    <mxGeometry width="80" relative="1" as="geometry">
                        <mxPoint x="500" y="289" as="sourcePoint"/>
                        <mxPoint x="700" y="290" as="targetPoint"/>
                        <Array as="points">
                            <mxPoint x="690" y="290"/>
                        </Array>
                    </mxGeometry>
                </mxCell>
                <mxCell id="24" value="" style="edgeStyle=none;orthogonalLoop=1;jettySize=auto;html=1;strokeColor=#F0F0F0;fontSize=12;shape=link;width=1;" edge="1" parent="1">
                    <mxGeometry width="80" relative="1" as="geometry">
                        <mxPoint x="500" y="320" as="sourcePoint"/>
                        <mxPoint x="700" y="321" as="targetPoint"/>
                        <Array as="points">
                            <mxPoint x="690" y="321"/>
                        </Array>
                    </mxGeometry>
                </mxCell>
                <mxCell id="25" value="" style="edgeStyle=none;orthogonalLoop=1;jettySize=auto;html=1;strokeColor=#F0F0F0;fontSize=12;exitX=-0.013;exitY=0.136;exitDx=0;exitDy=0;exitPerimeter=0;" edge="1" parent="1" source="16" target="12">
                    <mxGeometry width="80" relative="1" as="geometry">
                        <mxPoint x="410" y="264.5" as="sourcePoint"/>
                        <mxPoint x="490" y="264.5" as="targetPoint"/>
                    </mxGeometry>
                </mxCell>
            </root>
        </mxGraphModel>
    </diagram>
</mxfile>